<svg xmlns="http://www.w3.org/2000/svg" viewBox="0 0 22 16" shape-rendering="crispEdges">
  <rect x="0" y="11" width="1" height="1" fill="#d97706"/>
  <rect x="1" y="12" width="1" height="1" fill="#f59e0b"/>
  <rect x="5" y="0" width="1" height="1" fill="#b45309"/>
  <rect x="6" y="0" width="1" height="1" fill="#b45309"/>
  <rect x="8" y="0" width="1" height="1" fill="#b45309"/>
  <rect x="9" y="0" width="1" height="1" fill="#b45309"/>
  <rect x="4" y="1" width="6" height="1" fill="#f59e0b"/>
  <rect x="3" y="2" width="8" height="1" fill="#f59e0b"/>
  <rect x="3" y="3" width="10" height="1" fill="#f59e0b"/>
  <rect x="2" y="4" width="12" height="1" fill="#f59e0b"/>
  <rect x="2" y="5" width="12" height="1" fill="#f59e0b"/>
  <rect x="2" y="6" width="5" height="1" fill="#fff7ed"/>
  <rect x="7" y="6" width="7" height="1" fill="#f59e0b"/>
  <rect x="2" y="7" width="4" height="1" fill="#fff7ed"/>
  <rect x="6" y="7" width="8" height="1" fill="#f59e0b"/>
  <rect x="14" y="5" width="1" height="1" fill="#1f2937"/>
  <rect x="16" y="6" width="1" height="1" fill="#fb7185"/>
  <rect x="3" y="8" width="3" height="1" fill="#f59e0b"/>
  <rect x="7" y="11" width="1" height="3" fill="#b45309"/>
  <rect x="8" y="13" width="1" height="1" fill="#b45309"/>
  <rect x="14" y="11" width="1" height="3" fill="#b45309"/>
  <rect x="15" y="13" width="1" height="1" fill="#b45309"/>
</svg>
