<svg xmlns="http://www.w3.org/2000/svg" width="96" height="24" shape-rendering="crispEdges">
  <!-- Frame 1 -->
  <g transform="translate(0,0)">
    <rect x="2" y="9" width="2" height="2" fill="#d97706"/>
    <rect x="1" y="11" width="2" height="2" fill="#f59e0b"/>
    <rect x="10" y="1" width="2" height="2" fill="#b45309"/>
    <rect x="13" y="1" width="2" height="2" fill="#b45309"/>
    <rect x="9" y="3" width="8" height="2" fill="#f59e0b"/>
    <rect x="7" y="5" width="11" height="2" fill="#f59e0b"/>
    <rect x="6" y="7" width="13" height="2" fill="#f59e0b"/>
    <rect x="6" y="9" width="5" height="2" fill="#fff7ed"/>
    <rect x="11" y="9" width="7" height="2" fill="#f59e0b"/>
    <rect x="17" y="7" width="2" height="2" fill="#1f2937"/>
    <rect x="19" y="8" width="1" height="1" fill="#fca5a5"/>
    <rect x="15" y="11" width="2" height="4" fill="#b45309"/>
    <rect x="8" y="13" width="2" height="3" fill="#b45309"/>
    <rect x="4" y="11" width="2" height="2" fill="#f59e0b"/>
  </g>

  <!-- Frame 2 -->
  <g transform="translate(24,0)">
    <rect x="2" y="10" width="2" height="2" fill="#d97706"/>
    <rect x="1" y="12" width="2" height="1" fill="#f59e0b"/>
    <rect x="10" y="1" width="2" height="2" fill="#b45309"/>
    <rect x="13" y="1" width="2" height="2" fill="#b45309"/>
    <rect x="9" y="3" width="8" height="2" fill="#f59e0b"/>
    <rect x="7" y="5" width="11" height="2" fill="#f59e0b"/>
    <rect x="6" y="7" width="13" height="2" fill="#f59e0b"/>
    <rect x="6" y="9" width="5" height="2" fill="#fff7ed"/>
    <rect x="11" y="9" width="7" height="2" fill="#f59e0b"/>
    <rect x="17" y="7" width="2" height="2" fill="#1f2937"/>
    <rect x="19" y="8" width="1" height="1" fill="#fca5a5"/>
    <rect x="6" y="12" width="2" height="3" fill="#b45309"/>
    <rect x="14" y="12" width="2" height="3" fill="#b45309"/>
    <rect x="4" y="11" width="2" height="2" fill="#f59e0b"/>
  </g>

  <!-- Frame 3 -->
  <g transform="translate(48,0)">
    <rect x="2" y="9" width="2" height="2" fill="#d97706"/>
    <rect x="1" y="11" width="2" height="2" fill="#f59e0b"/>
    <rect x="10" y="1" width="2" height="2" fill="#b45309"/>
    <rect x="13" y="1" width="2" height="2" fill="#b45309"/>
    <rect x="9" y="3" width="8" height="2" fill="#f59e0b"/>
    <rect x="7" y="5" width="11" height="2" fill="#f59e0b"/>
    <rect x="6" y="7" width="13" height="2" fill="#f59e0b"/>
    <rect x="6" y="9" width="5" height="2" fill="#fff7ed"/>
    <rect x="11" y="9" width="7" height="2" fill="#f59e0b"/>
    <rect x="17" y="7" width="2" height="2" fill="#1f2937"/>
    <rect x="19" y="8" width="1" height="1" fill="#fca5a5"/>
    <rect x="5" y="11" width="2" height="4" fill="#b45309"/>
    <rect x="13" y="13" width="2" height="3" fill="#b45309"/>
    <rect x="4" y="11" width="2" height="2" fill="#f59e0b"/>
  </g>

  <!-- Frame 4 -->
  <g transform="translate(72,0)">
    <rect x="2" y="10" width="2" height="2" fill="#d97706"/>
    <rect x="1" y="12" width="2" height="1" fill="#f59e0b"/>
    <rect x="10" y="1" width="2" height="2" fill="#b45309"/>
    <rect x="13" y="1" width="2" height="2" fill="#b45309"/>
    <rect x="9" y="3" width="8" height="2" fill="#f59e0b"/>
    <rect x="7" y="5" width="11" height="2" fill="#f59e0b"/>
    <rect x="6" y="7" width="13" height="2" fill="#f59e0b"/>
    <rect x="6" y="9" width="5" height="2" fill="#fff7ed"/>
    <rect x="11" y="9" width="7" height="2" fill="#f59e0b"/>
    <rect x="17" y="7" width="2" height="2" fill="#1f2937"/>
    <rect x="19" y="8" width="1" height="1" fill="#fca5a5"/>
    <rect x="6" y="12" width="2" height="3" fill="#b45309"/>
    <rect x="14" y="12" width="2" height="3" fill="#b45309"/>
    <rect x="4" y="11" width="2" height="2" fill="#f59e0b"/>
  </g>
</svg>
